# xmcd CD database file
#
# Track frame offsets:
#	150
#	15583
#	23475
#	38330
#	52753
#	68137
#	81839
#	100037
#	113115
#	126312
#	140794
#	154917
#	169813
#
# Disc length: 2439 seconds
#
# Revision: 6
# Processed by: cddbd v1.5.2PL0 Copyright (c) Steve Scherf et al.
# Submitted via: CDex 1.51
#
DISCID=9c09850d
DTITLE=Chet Atkins - Almost Alone
DYEAR=1996
DGENRE=Country
TTITLE0=Chet Atkins - Almost Alone
TTITLE1=Chet Atkins - Almost Alone
TTITLE2=Chet Atkins - Almost Alone
TTITLE3=Chet Atkins - Almost Alone
TTITLE4=Chet Atkins - Almost Alone
TTITLE5=Chet Atkins - Almost Alone
TTITLE6=Chet Atkins - Almost Alone
TTITLE7=Chet Atkins - Almost Alone
TTITLE8=Chet Atkins - Almost Alone
TTITLE9=Chet Atkins - Almost Alone
TTITLE10=Chet Atkins - Almost Alone
TTITLE11=Chet Atkins - Almost Alone
TTITLE12=Chet Atkins - Almost Alone
EXTD=YEAR: 1996
EXTT0=
EXTT1=
EXTT2=
EXTT3=
EXTT4=
EXTT5=
EXTT6=
EXTT7=
EXTT8=
EXTT9=
EXTT10=
EXTT11=
EXTT12=
PLAYORDER=
